# xmcd CD database file
#
# Track frame offsets:
#	150
#	4500
#	22725
#	46725
#	55800
#	71400
#	89100
#	96525
#	116775
#	127650
#	166650
#	185925
#	194250
#
# Disc length: 2646 seconds
#
# Revision: 1
# Processed by: cddbd v1.5.1PL0 Copyright (c) Steve Scherf et al.
# Submitted via: freeDBTagger 0.5
#
DISCID=a60a540d
DTITLE=モダンチョキチョキズ - ローリング・ドドイツ
DYEAR=1900
DGENRE=folk
TTITLE0=ハロー!ドドイツ
TTITLE1=主夫の生活
TTITLE2=あたまはクラクラおめめはクルクル
TTITLE3=恋の山手線
TTITLE4=新・オバケのQ太郎
TTITLE5=甘い予感
TTITLE6=しとやかな獣
TTITLE7=愚か者
TTITLE8=B.M.W.(Black Magic Woman)
TTITLE9=サラリーマンノーデリカシーバットナイスピープル
TTITLE10=ティーンエイジ ドドンパ
TTITLE11=さよならはつらいよ
TTITLE12=「ボンゲンガンバンガラビンゲンの伝説」予告編
EXTD=
EXTT0=
EXTT1=
EXTT2=
EXTT3=
EXTT4=
EXTT5=
EXTT6=
EXTT7=
EXTT8=
EXTT9=
EXTT10=
EXTT11=
EXTT12=
PLAYORDER=
